<svg width="129" height="151" viewBox="0 0 129 151" fill="none" xmlns="http://www.w3.org/2000/svg">
<path fill-rule="evenodd" clip-rule="evenodd" d="M0 136.893L114.221 150.25L128.295 50.4832L95.7899 8.63927L18.9658 0L0 136.893ZM27.8223 10.8251L88.7124 16.9397L80.2886 55.7103L116.817 60.6161L105.361 139.707L10.5703 128.129L27.8223 10.8251ZM35.0226 104.756L35.0225 104.756L35.0224 104.755C33.1214 103.045 30.8672 101.016 30.2266 100.135C45.8053 82.822 83.8504 83.0363 94.416 105.941C92.6551 106.588 84.794 109.985 83.2534 110.849C78.8458 98.0709 53.0288 94.0395 37.8416 107.405C37.5656 107.044 36.3848 105.981 35.0226 104.756ZM60.7183 64.8958L67.1373 60.0736L59.4388 48.8067L71.776 42.1971L67.6508 33.9329L53.9613 40.789L46.2757 29.5393L36.6473 35.9689L44.5704 45.4912L32.6162 51.4793L37.9204 60.3329L51.0643 53.2924L60.7183 64.8958Z" fill="white"/>
</svg>
